<?xml version="1.0" encoding="UTF-8"?>
<!DOCTYPE svg PUBLIC "-//W3C//DTD SVG 1.1//EN" "http://www.w3.org/Graphics/SVG/1.1/DTD/svg11.dtd">
<!-- Creator: CorelDRAW X7 -->
<svg xmlns="http://www.w3.org/2000/svg" xml:space="preserve" width="3.91578in" height="3.91579in" version="1.1" style="shape-rendering:geometricPrecision; text-rendering:geometricPrecision; image-rendering:optimizeQuality; fill-rule:evenodd; clip-rule:evenodd"
viewBox="0 0 3916 3916"
 xmlns:xlink="http://www.w3.org/1999/xlink">
 <defs>
  <style type="text/css">
   <![CDATA[
    .str0 {stroke:#4B4B4D;stroke-width:10.4134}
    .fil1 {fill:none}
    .fil0 {fill:#373435}
   ]]>
  </style>
   <clipPath id="id0">
    <path d="M2189 2189l-231 1727 -231 -1727 -1727 -231 1727 -231 231 -1727 231 1727 1727 231 -1727 231z"/>
   </clipPath>
 </defs>
 <g id="Layer_x0020_1">
  <metadata id="CorelCorpID_0Corel-Layer"/>
  <polygon class="fil0" points="2189,2189 1958,3916 1727,2189 0,1958 1727,1727 1958,0 2189,1727 3916,1958 "/>
  <g style="clip-path:url(#id0)">
   <g id="_2605798259088">
    <g>
     <line id="1" class="fil1 str0" x1="1958" y1="-112" x2="1958" y2= "4027" />
     <line class="fil1 str0" x1="-199" y1="1958" x2="4115" y2= "1958" />
     <line class="fil1 str0" x1="1700" y1="1700" x2="2215" y2= "2215" />
     <line class="fil1 str0" x1="2215" y1="1700" x2="1700" y2= "2215" />
    </g>
   </g>
  </g>
  <polygon class="fil1" points="2189,2189 1958,3916 1727,2189 0,1958 1727,1727 1958,0 2189,1727 3916,1958 "/>
 </g>
</svg>
