<?xml version="1.0" standalone="no"?>
<!DOCTYPE svg PUBLIC "-//W3C//DTD SVG 20010904//EN"
 "http://www.w3.org/TR/2001/REC-SVG-20010904/DTD/svg10.dtd">
<svg version="1.0" xmlns="http://www.w3.org/2000/svg"
 width="197.000000pt" height="53.000000pt" viewBox="0 0 197.000000 53.000000"
 preserveAspectRatio="xMidYMid meet">

<g transform="translate(0.000000,53.000000) scale(0.100000,-0.100000)"
fill="#000000" stroke="none">
<path d="M1170 300 l0 -221 43 3 42 3 3 63 c2 36 7 62 14 62 6 0 43 -29 83
-65 71 -64 74 -65 129 -65 31 0 56 3 56 8 0 4 -41 43 -91 87 l-91 80 39 34
c107 96 133 123 128 132 -4 5 -27 9 -52 9 -42 0 -51 -5 -118 -65 -40 -36 -78
-65 -84 -65 -6 0 -11 40 -13 108 l-3 107 -42 3 -43 3 0 -221z"/>
<path d="M1590 299 l0 -220 43 3 42 3 3 63 c2 40 7 62 15 62 7 0 44 -29 82
-65 69 -63 71 -64 128 -65 31 0 57 4 57 8 0 4 -41 44 -91 87 l-91 79 34 30
c78 68 138 128 138 137 0 5 -23 9 -51 9 -49 0 -54 -3 -124 -65 -40 -36 -77
-65 -84 -65 -7 0 -11 35 -11 110 l0 110 -45 0 -45 0 0 -221z"/>
<path d="M56 494 c-3 -9 -6 -26 -6 -39 0 -14 -7 -25 -20 -28 -16 -4 -20 -14
-20 -46 0 -34 3 -41 20 -41 18 0 20 -7 20 -62 2 -154 30 -198 130 -198 74 0
105 14 125 55 25 54 20 65 -25 65 -29 0 -42 -5 -50 -20 -14 -27 -65 -27 -80
-1 -5 11 -10 51 -10 90 l0 71 91 0 90 0 -3 43 -3 42 -87 3 -88 3 0 39 c0 40 0
40 -39 40 -26 0 -41 -5 -45 -16z"/>
<path d="M380 253 l0 -174 43 3 42 3 3 128 3 127 60 0 c44 0 61 -4 65 -15 4
-10 20 -15 50 -15 50 0 55 11 28 61 -23 45 -63 57 -187 57 l-107 0 0 -175z"/>
</g>
</svg>
